<mxfile host="Electron" modified="2023-11-14T04:07:10.791Z" agent="Mozilla/5.0 (Windows NT 10.0; Win64; x64) AppleWebKit/537.36 (KHTML, like Gecko) draw.io/22.0.2 Chrome/114.0.5735.289 Electron/25.8.4 Safari/537.36" etag="EBsxJQyTjpQFomjHNdGV" version="22.0.2" type="device">
  <diagram name="Page-1" id="2c0d36ab-eaac-3732-788b-9136903baeff">
    <mxGraphModel dx="1204" dy="242" grid="0" gridSize="10" guides="1" tooltips="1" connect="1" arrows="1" fold="1" page="0" pageScale="1.5" pageWidth="1169" pageHeight="827" background="none" math="0" shadow="0">
      <root>
        <mxCell id="0" />
        <mxCell id="1" parent="0" />
        <mxCell id="2" value="Inicio" style="rounded=1;fillColor=#BD0999;strokeColor=#000000;fontStyle=1;fontFamily=Tahoma;fontSize=26;fontColor=#000000;strokeWidth=2;" parent="1" vertex="1">
          <mxGeometry x="1915.75" y="56" width="190" height="80" as="geometry" />
        </mxCell>
        <mxCell id="13" value="Paciente" style="rounded=1;fillColor=#F00BC2;strokeColor=#000000;fontStyle=1;fontFamily=Tahoma;fontSize=23;fontColor=#000000;strokeWidth=2;" parent="1" vertex="1">
          <mxGeometry x="280.5" y="259" width="190" height="80" as="geometry" />
        </mxCell>
        <mxCell id="16" value="Listado de&#xa;próximas citas" style="rounded=1;fillColor=#FF47F9;strokeColor=#000000;fontStyle=1;fontFamily=Tahoma;fontSize=18;fontColor=#000000;strokeWidth=2;" parent="1" vertex="1">
          <mxGeometry x="-477" y="555.5" width="190" height="60" as="geometry" />
        </mxCell>
        <mxCell id="61" value="" style="edgeStyle=elbowEdgeStyle;elbow=vertical;strokeWidth=2;rounded=0;strokeColor=#000000;" parent="1" source="2" target="13" edge="1">
          <mxGeometry x="-23" y="135.5" width="100" height="100" as="geometry">
            <mxPoint x="-23" y="235.5" as="sourcePoint" />
            <mxPoint x="77" y="135.5" as="targetPoint" />
            <Array as="points">
              <mxPoint x="1198" y="183" />
            </Array>
          </mxGeometry>
        </mxCell>
        <mxCell id="M5uI9JZ_tP9MdGgEt3Kv-123" value="" style="edgeStyle=elbowEdgeStyle;elbow=vertical;strokeWidth=2;rounded=0;entryX=0.5;entryY=0;entryDx=0;entryDy=0;exitX=0.5;exitY=1;exitDx=0;exitDy=0;strokeColor=#000000;" edge="1" parent="1" source="13" target="M5uI9JZ_tP9MdGgEt3Kv-124">
          <mxGeometry x="-23" y="135.5" width="100" height="100" as="geometry">
            <mxPoint x="862.5" y="199.5" as="sourcePoint" />
            <mxPoint x="385.5" y="269.5" as="targetPoint" />
          </mxGeometry>
        </mxCell>
        <mxCell id="M5uI9JZ_tP9MdGgEt3Kv-124" value="Ver citas" style="rounded=1;fillColor=#FF00F7;strokeColor=#000000;fontStyle=1;fontFamily=Tahoma;fontSize=18;fontColor=#000000;strokeWidth=2;" vertex="1" parent="1">
          <mxGeometry x="-317" y="420.5" width="130" height="60" as="geometry" />
        </mxCell>
        <mxCell id="M5uI9JZ_tP9MdGgEt3Kv-125" value="" style="edgeStyle=elbowEdgeStyle;elbow=vertical;strokeWidth=2;rounded=0;entryX=0.5;entryY=0;entryDx=0;entryDy=0;exitX=0.5;exitY=1;exitDx=0;exitDy=0;strokeColor=#000000;" edge="1" parent="1" source="M5uI9JZ_tP9MdGgEt3Kv-124" target="16">
          <mxGeometry x="-23" y="135.5" width="100" height="100" as="geometry">
            <mxPoint x="-52" y="376.5" as="sourcePoint" />
            <mxPoint x="-242" y="430.5" as="targetPoint" />
          </mxGeometry>
        </mxCell>
        <mxCell id="M5uI9JZ_tP9MdGgEt3Kv-126" value="Historial de citas" style="rounded=1;fillColor=#FF47F9;strokeColor=#000000;fontStyle=1;fontFamily=Tahoma;fontSize=18;fontColor=#000000;strokeWidth=2;" vertex="1" parent="1">
          <mxGeometry x="-255" y="555.5" width="190" height="60" as="geometry" />
        </mxCell>
        <mxCell id="M5uI9JZ_tP9MdGgEt3Kv-127" value="" style="edgeStyle=elbowEdgeStyle;elbow=vertical;strokeWidth=2;rounded=0;entryX=0.5;entryY=0;entryDx=0;entryDy=0;exitX=0.5;exitY=1;exitDx=0;exitDy=0;strokeColor=#000000;" edge="1" parent="1" target="M5uI9JZ_tP9MdGgEt3Kv-126" source="M5uI9JZ_tP9MdGgEt3Kv-124">
          <mxGeometry x="-23" y="135.5" width="100" height="100" as="geometry">
            <mxPoint x="-22" y="505.5" as="sourcePoint" />
            <mxPoint x="-12" y="455.5" as="targetPoint" />
          </mxGeometry>
        </mxCell>
        <mxCell id="M5uI9JZ_tP9MdGgEt3Kv-129" value="" style="edgeStyle=elbowEdgeStyle;elbow=vertical;strokeWidth=2;rounded=0;entryX=0.5;entryY=0;entryDx=0;entryDy=0;exitX=0.5;exitY=1;exitDx=0;exitDy=0;strokeColor=#000000;" edge="1" parent="1" target="M5uI9JZ_tP9MdGgEt3Kv-130" source="13">
          <mxGeometry x="-23" y="135.5" width="100" height="100" as="geometry">
            <mxPoint x="826.5" y="350.5" as="sourcePoint" />
            <mxPoint x="836.5" y="280.5" as="targetPoint" />
          </mxGeometry>
        </mxCell>
        <mxCell id="M5uI9JZ_tP9MdGgEt3Kv-130" value="Agendar citas" style="rounded=1;fillColor=#FF00F7;strokeColor=#000000;fontStyle=1;fontFamily=Tahoma;fontSize=18;fontColor=#000000;strokeWidth=2;" vertex="1" parent="1">
          <mxGeometry x="-22" y="420.5" width="130" height="60" as="geometry" />
        </mxCell>
        <mxCell id="M5uI9JZ_tP9MdGgEt3Kv-132" value="Búsqueda de&#xa;centros médicos" style="rounded=1;fillColor=#FF47F9;strokeColor=#000000;fontStyle=1;fontFamily=Tahoma;fontSize=18;fontColor=#000000;strokeWidth=2;" vertex="1" parent="1">
          <mxGeometry x="-52" y="555.5" width="190" height="60" as="geometry" />
        </mxCell>
        <mxCell id="M5uI9JZ_tP9MdGgEt3Kv-133" value="" style="edgeStyle=elbowEdgeStyle;elbow=vertical;strokeWidth=2;rounded=0;entryX=0.5;entryY=0;entryDx=0;entryDy=0;exitX=0.5;exitY=1;exitDx=0;exitDy=0;strokeColor=#000000;" edge="1" parent="1" source="M5uI9JZ_tP9MdGgEt3Kv-130" target="M5uI9JZ_tP9MdGgEt3Kv-132">
          <mxGeometry x="-23" y="135.5" width="100" height="100" as="geometry">
            <mxPoint x="273" y="505.5" as="sourcePoint" />
            <mxPoint x="283" y="455.5" as="targetPoint" />
          </mxGeometry>
        </mxCell>
        <mxCell id="M5uI9JZ_tP9MdGgEt3Kv-134" value="Selección de&#xa;fecha y hora" style="rounded=1;fillColor=#FF47F9;strokeColor=#000000;fontStyle=1;fontFamily=Tahoma;fontSize=18;fontColor=#000000;strokeWidth=2;" vertex="1" parent="1">
          <mxGeometry x="-52" y="690.5" width="190" height="60" as="geometry" />
        </mxCell>
        <mxCell id="M5uI9JZ_tP9MdGgEt3Kv-135" value="" style="edgeStyle=elbowEdgeStyle;elbow=vertical;strokeWidth=2;rounded=0;entryX=0.5;entryY=0;entryDx=0;entryDy=0;exitX=0.5;exitY=1;exitDx=0;exitDy=0;strokeColor=#000000;" edge="1" parent="1" target="M5uI9JZ_tP9MdGgEt3Kv-134" source="M5uI9JZ_tP9MdGgEt3Kv-132">
          <mxGeometry x="-23" y="135.5" width="100" height="100" as="geometry">
            <mxPoint x="73" y="635.5" as="sourcePoint" />
            <mxPoint x="438" y="652.5" as="targetPoint" />
          </mxGeometry>
        </mxCell>
        <mxCell id="M5uI9JZ_tP9MdGgEt3Kv-136" value="Listado de&#xa;chats recientes" style="rounded=1;fillColor=#FF47F9;strokeColor=#000000;fontStyle=1;fontFamily=Tahoma;fontSize=18;fontColor=#000000;strokeWidth=2;" vertex="1" parent="1">
          <mxGeometry x="171" y="555.5" width="190" height="60" as="geometry" />
        </mxCell>
        <mxCell id="M5uI9JZ_tP9MdGgEt3Kv-137" value="" style="edgeStyle=elbowEdgeStyle;elbow=vertical;strokeWidth=2;rounded=0;entryX=0.5;entryY=0;entryDx=0;entryDy=0;exitX=0.5;exitY=1;exitDx=0;exitDy=0;strokeColor=#000000;" edge="1" parent="1" target="M5uI9JZ_tP9MdGgEt3Kv-138" source="13">
          <mxGeometry x="-23" y="135.5" width="100" height="100" as="geometry">
            <mxPoint x="1038.5" y="397.5" as="sourcePoint" />
            <mxPoint x="1048.5" y="327.5" as="targetPoint" />
          </mxGeometry>
        </mxCell>
        <mxCell id="M5uI9JZ_tP9MdGgEt3Kv-138" value="Chat" style="rounded=1;fillColor=#FF00F7;strokeColor=#000000;fontStyle=1;fontFamily=Tahoma;fontSize=18;fontColor=#000000;strokeWidth=2;" vertex="1" parent="1">
          <mxGeometry x="331" y="420.5" width="130" height="60" as="geometry" />
        </mxCell>
        <mxCell id="M5uI9JZ_tP9MdGgEt3Kv-139" value="" style="edgeStyle=elbowEdgeStyle;elbow=vertical;strokeWidth=2;rounded=0;entryX=0.5;entryY=0;entryDx=0;entryDy=0;exitX=0.5;exitY=1;exitDx=0;exitDy=0;strokeColor=#000000;" edge="1" parent="1" source="M5uI9JZ_tP9MdGgEt3Kv-138" target="M5uI9JZ_tP9MdGgEt3Kv-136">
          <mxGeometry x="-23" y="135.5" width="100" height="100" as="geometry">
            <mxPoint x="596" y="376.5" as="sourcePoint" />
            <mxPoint x="406" y="430.5" as="targetPoint" />
          </mxGeometry>
        </mxCell>
        <mxCell id="M5uI9JZ_tP9MdGgEt3Kv-140" value="Iniciar nuevo chat" style="rounded=1;fillColor=#FF47F9;strokeColor=#000000;fontStyle=1;fontFamily=Tahoma;fontSize=18;fontColor=#000000;strokeWidth=2;" vertex="1" parent="1">
          <mxGeometry x="393" y="555.5" width="190" height="60" as="geometry" />
        </mxCell>
        <mxCell id="M5uI9JZ_tP9MdGgEt3Kv-141" value="" style="edgeStyle=elbowEdgeStyle;elbow=vertical;strokeWidth=2;rounded=0;entryX=0.5;entryY=0;entryDx=0;entryDy=0;exitX=0.5;exitY=1;exitDx=0;exitDy=0;strokeColor=#000000;" edge="1" parent="1" source="M5uI9JZ_tP9MdGgEt3Kv-138" target="M5uI9JZ_tP9MdGgEt3Kv-140">
          <mxGeometry x="-23" y="135.5" width="100" height="100" as="geometry">
            <mxPoint x="626" y="505.5" as="sourcePoint" />
            <mxPoint x="636" y="455.5" as="targetPoint" />
          </mxGeometry>
        </mxCell>
        <mxCell id="M5uI9JZ_tP9MdGgEt3Kv-143" value="Resultados&#xa;de exámenes" style="rounded=1;fillColor=#FF47F9;strokeColor=#000000;fontStyle=1;fontFamily=Tahoma;fontSize=18;fontColor=#000000;strokeWidth=2;" vertex="1" parent="1">
          <mxGeometry x="603.5" y="555.5" width="190" height="60" as="geometry" />
        </mxCell>
        <mxCell id="M5uI9JZ_tP9MdGgEt3Kv-144" value="" style="edgeStyle=elbowEdgeStyle;elbow=vertical;strokeWidth=2;rounded=0;entryX=0.5;entryY=0;entryDx=0;entryDy=0;exitX=0.5;exitY=1;exitDx=0;exitDy=0;strokeColor=#000000;" edge="1" parent="1" target="M5uI9JZ_tP9MdGgEt3Kv-145" source="13">
          <mxGeometry x="-23" y="135.5" width="100" height="100" as="geometry">
            <mxPoint x="810.5" y="341.5" as="sourcePoint" />
            <mxPoint x="1483.5" y="329.5" as="targetPoint" />
          </mxGeometry>
        </mxCell>
        <mxCell id="M5uI9JZ_tP9MdGgEt3Kv-145" value="Ver historial&#xa;médico" style="rounded=1;fillColor=#FF00F7;strokeColor=#000000;fontStyle=1;fontFamily=Tahoma;fontSize=18;fontColor=#000000;strokeWidth=2;" vertex="1" parent="1">
          <mxGeometry x="855.5" y="420.5" width="130" height="60" as="geometry" />
        </mxCell>
        <mxCell id="M5uI9JZ_tP9MdGgEt3Kv-146" value="" style="edgeStyle=elbowEdgeStyle;elbow=vertical;strokeWidth=2;rounded=0;entryX=0.5;entryY=0;entryDx=0;entryDy=0;exitX=0.5;exitY=1;exitDx=0;exitDy=0;strokeColor=#000000;" edge="1" parent="1" source="M5uI9JZ_tP9MdGgEt3Kv-145" target="M5uI9JZ_tP9MdGgEt3Kv-143">
          <mxGeometry x="-23" y="135.5" width="100" height="100" as="geometry">
            <mxPoint x="1028.5" y="376.5" as="sourcePoint" />
            <mxPoint x="838.5" y="430.5" as="targetPoint" />
          </mxGeometry>
        </mxCell>
        <mxCell id="M5uI9JZ_tP9MdGgEt3Kv-147" value="Recetas" style="rounded=1;fillColor=#FF47F9;strokeColor=#000000;fontStyle=1;fontFamily=Tahoma;fontSize=18;fontColor=#000000;strokeWidth=2;" vertex="1" parent="1">
          <mxGeometry x="825.5" y="555.5" width="190" height="60" as="geometry" />
        </mxCell>
        <mxCell id="M5uI9JZ_tP9MdGgEt3Kv-148" value="" style="edgeStyle=elbowEdgeStyle;elbow=vertical;strokeWidth=2;rounded=0;entryX=0.5;entryY=0;entryDx=0;entryDy=0;exitX=0.5;exitY=1;exitDx=0;exitDy=0;strokeColor=#000000;" edge="1" parent="1" source="M5uI9JZ_tP9MdGgEt3Kv-145" target="M5uI9JZ_tP9MdGgEt3Kv-147">
          <mxGeometry x="-23" y="135.5" width="100" height="100" as="geometry">
            <mxPoint x="1058.5" y="505.5" as="sourcePoint" />
            <mxPoint x="1068.5" y="455.5" as="targetPoint" />
          </mxGeometry>
        </mxCell>
        <mxCell id="M5uI9JZ_tP9MdGgEt3Kv-149" value="Notas médicas" style="rounded=1;fillColor=#FF47F9;strokeColor=#000000;fontStyle=1;fontFamily=Tahoma;fontSize=18;fontColor=#000000;strokeWidth=2;" vertex="1" parent="1">
          <mxGeometry x="1029.5" y="555.5" width="190" height="60" as="geometry" />
        </mxCell>
        <mxCell id="M5uI9JZ_tP9MdGgEt3Kv-150" value="" style="edgeStyle=elbowEdgeStyle;elbow=vertical;strokeWidth=2;rounded=0;entryX=0.5;entryY=0;entryDx=0;entryDy=0;exitX=0.5;exitY=1;exitDx=0;exitDy=0;strokeColor=#000000;" edge="1" parent="1" target="M5uI9JZ_tP9MdGgEt3Kv-149" source="M5uI9JZ_tP9MdGgEt3Kv-145">
          <mxGeometry x="-23" y="135.5" width="100" height="100" as="geometry">
            <mxPoint x="1032.5" y="480.5" as="sourcePoint" />
            <mxPoint x="1272.5" y="455.5" as="targetPoint" />
          </mxGeometry>
        </mxCell>
        <mxCell id="M5uI9JZ_tP9MdGgEt3Kv-214" value="Médico" style="rounded=1;fillColor=#F00BC2;strokeColor=#000000;fontStyle=1;fontFamily=Tahoma;fontSize=23;fontColor=#000000;strokeWidth=2;" vertex="1" parent="1">
          <mxGeometry x="1916.25" y="259" width="190" height="80" as="geometry" />
        </mxCell>
        <mxCell id="M5uI9JZ_tP9MdGgEt3Kv-215" value="Calendario de&#xa;citas del día" style="rounded=1;fillColor=#FF47F9;strokeColor=#000000;fontStyle=1;fontFamily=Tahoma;fontSize=18;fontColor=#000000;strokeWidth=2;" vertex="1" parent="1">
          <mxGeometry x="1276.5" y="555.5" width="190" height="60" as="geometry" />
        </mxCell>
        <mxCell id="M5uI9JZ_tP9MdGgEt3Kv-216" value="" style="edgeStyle=elbowEdgeStyle;elbow=vertical;strokeWidth=2;rounded=0;entryX=0.5;entryY=0;entryDx=0;entryDy=0;exitX=0.5;exitY=1;exitDx=0;exitDy=0;strokeColor=#000000;" edge="1" parent="1" source="M5uI9JZ_tP9MdGgEt3Kv-214" target="M5uI9JZ_tP9MdGgEt3Kv-217">
          <mxGeometry x="-23" y="135.5" width="100" height="100" as="geometry">
            <mxPoint x="2498.25" y="199.5" as="sourcePoint" />
            <mxPoint x="2021.25" y="269.5" as="targetPoint" />
          </mxGeometry>
        </mxCell>
        <mxCell id="M5uI9JZ_tP9MdGgEt3Kv-217" value="Ver citas" style="rounded=1;fillColor=#FF00F7;strokeColor=#000000;fontStyle=1;fontFamily=Tahoma;fontSize=18;fontColor=#000000;strokeWidth=2;" vertex="1" parent="1">
          <mxGeometry x="1436.5" y="420.5" width="130" height="60" as="geometry" />
        </mxCell>
        <mxCell id="M5uI9JZ_tP9MdGgEt3Kv-218" value="" style="edgeStyle=elbowEdgeStyle;elbow=vertical;strokeWidth=2;rounded=0;entryX=0.5;entryY=0;entryDx=0;entryDy=0;exitX=0.5;exitY=1;exitDx=0;exitDy=0;strokeColor=#000000;" edge="1" parent="1" source="M5uI9JZ_tP9MdGgEt3Kv-217" target="M5uI9JZ_tP9MdGgEt3Kv-215">
          <mxGeometry x="-23" y="135.5" width="100" height="100" as="geometry">
            <mxPoint x="1701.5" y="376.5" as="sourcePoint" />
            <mxPoint x="1511.5" y="430.5" as="targetPoint" />
          </mxGeometry>
        </mxCell>
        <mxCell id="M5uI9JZ_tP9MdGgEt3Kv-219" value="Historial de citas" style="rounded=1;fillColor=#FF47F9;strokeColor=#000000;fontStyle=1;fontFamily=Tahoma;fontSize=18;fontColor=#000000;strokeWidth=2;" vertex="1" parent="1">
          <mxGeometry x="1498.5" y="555.5" width="190" height="60" as="geometry" />
        </mxCell>
        <mxCell id="M5uI9JZ_tP9MdGgEt3Kv-220" value="" style="edgeStyle=elbowEdgeStyle;elbow=vertical;strokeWidth=2;rounded=0;entryX=0.5;entryY=0;entryDx=0;entryDy=0;exitX=0.5;exitY=1;exitDx=0;exitDy=0;strokeColor=#000000;" edge="1" parent="1" source="M5uI9JZ_tP9MdGgEt3Kv-217" target="M5uI9JZ_tP9MdGgEt3Kv-219">
          <mxGeometry x="-23" y="135.5" width="100" height="100" as="geometry">
            <mxPoint x="1731.5" y="505.5" as="sourcePoint" />
            <mxPoint x="1741.5" y="455.5" as="targetPoint" />
          </mxGeometry>
        </mxCell>
        <mxCell id="M5uI9JZ_tP9MdGgEt3Kv-221" value="Listado de&#xa;chats recientes" style="rounded=1;fillColor=#FF47F9;strokeColor=#000000;fontStyle=1;fontFamily=Tahoma;fontSize=18;fontColor=#000000;strokeWidth=2;" vertex="1" parent="1">
          <mxGeometry x="1704" y="555.5" width="190" height="60" as="geometry" />
        </mxCell>
        <mxCell id="M5uI9JZ_tP9MdGgEt3Kv-222" value="" style="edgeStyle=elbowEdgeStyle;elbow=vertical;strokeWidth=2;rounded=0;entryX=0.5;entryY=0;entryDx=0;entryDy=0;exitX=0.5;exitY=1;exitDx=0;exitDy=0;strokeColor=#000000;" edge="1" parent="1" source="M5uI9JZ_tP9MdGgEt3Kv-214" target="M5uI9JZ_tP9MdGgEt3Kv-223">
          <mxGeometry x="-23" y="135.5" width="100" height="100" as="geometry">
            <mxPoint x="2674.25" y="397.5" as="sourcePoint" />
            <mxPoint x="2684.25" y="327.5" as="targetPoint" />
          </mxGeometry>
        </mxCell>
        <mxCell id="M5uI9JZ_tP9MdGgEt3Kv-223" value="Chat" style="rounded=1;fillColor=#FF00F7;strokeColor=#000000;fontStyle=1;fontFamily=Tahoma;fontSize=18;fontColor=#000000;strokeWidth=2;" vertex="1" parent="1">
          <mxGeometry x="1864" y="420.5" width="130" height="60" as="geometry" />
        </mxCell>
        <mxCell id="M5uI9JZ_tP9MdGgEt3Kv-224" value="" style="edgeStyle=elbowEdgeStyle;elbow=vertical;strokeWidth=2;rounded=0;entryX=0.5;entryY=0;entryDx=0;entryDy=0;exitX=0.5;exitY=1;exitDx=0;exitDy=0;strokeColor=#000000;" edge="1" parent="1" source="M5uI9JZ_tP9MdGgEt3Kv-223" target="M5uI9JZ_tP9MdGgEt3Kv-221">
          <mxGeometry x="-23" y="135.5" width="100" height="100" as="geometry">
            <mxPoint x="2129" y="376.5" as="sourcePoint" />
            <mxPoint x="1939" y="430.5" as="targetPoint" />
          </mxGeometry>
        </mxCell>
        <mxCell id="M5uI9JZ_tP9MdGgEt3Kv-225" value="Iniciar nuevo chat" style="rounded=1;fillColor=#FF47F9;strokeColor=#000000;fontStyle=1;fontFamily=Tahoma;fontSize=18;fontColor=#000000;strokeWidth=2;" vertex="1" parent="1">
          <mxGeometry x="1926" y="555.5" width="190" height="60" as="geometry" />
        </mxCell>
        <mxCell id="M5uI9JZ_tP9MdGgEt3Kv-226" value="" style="edgeStyle=elbowEdgeStyle;elbow=vertical;strokeWidth=2;rounded=0;entryX=0.5;entryY=0;entryDx=0;entryDy=0;exitX=0.5;exitY=1;exitDx=0;exitDy=0;strokeColor=#000000;" edge="1" parent="1" source="M5uI9JZ_tP9MdGgEt3Kv-223" target="M5uI9JZ_tP9MdGgEt3Kv-225">
          <mxGeometry x="-23" y="135.5" width="100" height="100" as="geometry">
            <mxPoint x="2159" y="505.5" as="sourcePoint" />
            <mxPoint x="2169" y="455.5" as="targetPoint" />
          </mxGeometry>
        </mxCell>
        <mxCell id="M5uI9JZ_tP9MdGgEt3Kv-227" value="Filtro por paciente" style="rounded=1;fillColor=#FF47F9;strokeColor=#000000;fontStyle=1;fontFamily=Tahoma;fontSize=18;fontColor=#000000;strokeWidth=2;" vertex="1" parent="1">
          <mxGeometry x="2130" y="555.5" width="190" height="60" as="geometry" />
        </mxCell>
        <mxCell id="M5uI9JZ_tP9MdGgEt3Kv-228" value="" style="edgeStyle=elbowEdgeStyle;elbow=vertical;strokeWidth=2;rounded=0;entryX=0.5;entryY=0;entryDx=0;entryDy=0;exitX=0.5;exitY=1;exitDx=0;exitDy=0;strokeColor=#000000;" edge="1" parent="1" source="M5uI9JZ_tP9MdGgEt3Kv-214" target="M5uI9JZ_tP9MdGgEt3Kv-229">
          <mxGeometry x="-23" y="135.5" width="100" height="100" as="geometry">
            <mxPoint x="2446.25" y="341.5" as="sourcePoint" />
            <mxPoint x="3119.25" y="329.5" as="targetPoint" />
          </mxGeometry>
        </mxCell>
        <mxCell id="M5uI9JZ_tP9MdGgEt3Kv-229" value="Ver historiales&#xa;médicos de pacientes" style="rounded=1;fillColor=#FF00F7;strokeColor=#000000;fontStyle=1;fontFamily=Tahoma;fontSize=18;fontColor=#000000;strokeWidth=2;" vertex="1" parent="1">
          <mxGeometry x="2382" y="420.5" width="207" height="60" as="geometry" />
        </mxCell>
        <mxCell id="M5uI9JZ_tP9MdGgEt3Kv-230" value="" style="edgeStyle=elbowEdgeStyle;elbow=vertical;strokeWidth=2;rounded=0;entryX=0.5;entryY=0;entryDx=0;entryDy=0;exitX=0.5;exitY=1;exitDx=0;exitDy=0;strokeColor=#000000;" edge="1" parent="1" source="M5uI9JZ_tP9MdGgEt3Kv-229" target="M5uI9JZ_tP9MdGgEt3Kv-227">
          <mxGeometry x="-23" y="135.5" width="100" height="100" as="geometry">
            <mxPoint x="2555" y="376.5" as="sourcePoint" />
            <mxPoint x="2365" y="430.5" as="targetPoint" />
          </mxGeometry>
        </mxCell>
        <mxCell id="M5uI9JZ_tP9MdGgEt3Kv-231" value="Ver y descargar&#xa;resultados,&#xa;recetas y notas" style="rounded=1;fillColor=#FF47F9;strokeColor=#000000;fontStyle=1;fontFamily=Tahoma;fontSize=18;fontColor=#000000;strokeWidth=2;" vertex="1" parent="1">
          <mxGeometry x="2343.25" y="546.5" width="190" height="78" as="geometry" />
        </mxCell>
        <mxCell id="M5uI9JZ_tP9MdGgEt3Kv-232" value="" style="edgeStyle=elbowEdgeStyle;elbow=vertical;strokeWidth=2;rounded=0;entryX=0.5;entryY=0;entryDx=0;entryDy=0;exitX=0.5;exitY=1;exitDx=0;exitDy=0;strokeColor=#000000;" edge="1" parent="1" source="M5uI9JZ_tP9MdGgEt3Kv-229" target="M5uI9JZ_tP9MdGgEt3Kv-231">
          <mxGeometry x="-23" y="135.5" width="100" height="100" as="geometry">
            <mxPoint x="2585" y="505.5" as="sourcePoint" />
            <mxPoint x="2595" y="455.5" as="targetPoint" />
            <Array as="points">
              <mxPoint x="2461.25" y="518.5" />
            </Array>
          </mxGeometry>
        </mxCell>
        <mxCell id="M5uI9JZ_tP9MdGgEt3Kv-233" value="Notas médicas" style="rounded=1;fillColor=#FF47F9;strokeColor=#000000;fontStyle=1;fontFamily=Tahoma;fontSize=18;fontColor=#000000;strokeWidth=2;" vertex="1" parent="1">
          <mxGeometry x="2556" y="555.5" width="190" height="60" as="geometry" />
        </mxCell>
        <mxCell id="M5uI9JZ_tP9MdGgEt3Kv-234" value="" style="edgeStyle=elbowEdgeStyle;elbow=vertical;strokeWidth=2;rounded=0;entryX=0.5;entryY=0;entryDx=0;entryDy=0;exitX=0.5;exitY=1;exitDx=0;exitDy=0;strokeColor=#000000;" edge="1" parent="1" source="M5uI9JZ_tP9MdGgEt3Kv-229" target="M5uI9JZ_tP9MdGgEt3Kv-233">
          <mxGeometry x="-23" y="135.5" width="100" height="100" as="geometry">
            <mxPoint x="2559" y="480.5" as="sourcePoint" />
            <mxPoint x="2799" y="455.5" as="targetPoint" />
          </mxGeometry>
        </mxCell>
        <mxCell id="M5uI9JZ_tP9MdGgEt3Kv-235" value="" style="edgeStyle=elbowEdgeStyle;elbow=vertical;strokeWidth=2;rounded=0;strokeColor=#000000;exitX=0.5;exitY=1;exitDx=0;exitDy=0;" edge="1" parent="1" source="2" target="M5uI9JZ_tP9MdGgEt3Kv-214">
          <mxGeometry x="-23" y="135.5" width="100" height="100" as="geometry">
            <mxPoint x="1678" y="61" as="sourcePoint" />
            <mxPoint x="385" y="346" as="targetPoint" />
          </mxGeometry>
        </mxCell>
        <mxCell id="M5uI9JZ_tP9MdGgEt3Kv-237" value="Administrador de&#xa;centro médico​" style="rounded=1;fillColor=#F00BC2;strokeColor=#000000;fontStyle=1;fontFamily=Tahoma;fontSize=23;fontColor=#000000;strokeWidth=2;" vertex="1" parent="1">
          <mxGeometry x="3352" y="286.5" width="214" height="80" as="geometry" />
        </mxCell>
        <mxCell id="M5uI9JZ_tP9MdGgEt3Kv-238" value="Crear, editar y&#xa; eliminar citas" style="rounded=1;fillColor=#FF47F9;strokeColor=#000000;fontStyle=1;fontFamily=Tahoma;fontSize=18;fontColor=#000000;strokeWidth=2;" vertex="1" parent="1">
          <mxGeometry x="2840.5" y="579" width="173.5" height="79" as="geometry" />
        </mxCell>
        <mxCell id="M5uI9JZ_tP9MdGgEt3Kv-239" value="" style="edgeStyle=elbowEdgeStyle;elbow=vertical;strokeWidth=2;rounded=0;strokeColor=#000000;exitX=0.5;exitY=1;exitDx=0;exitDy=0;" edge="1" parent="1" source="2" target="M5uI9JZ_tP9MdGgEt3Kv-237">
          <mxGeometry x="-23" y="135.5" width="100" height="100" as="geometry">
            <mxPoint x="3458.5" y="291" as="sourcePoint" />
            <mxPoint x="3160.5" y="162.5" as="targetPoint" />
            <Array as="points">
              <mxPoint x="2725" y="183" />
            </Array>
          </mxGeometry>
        </mxCell>
        <mxCell id="M5uI9JZ_tP9MdGgEt3Kv-240" value="" style="edgeStyle=elbowEdgeStyle;elbow=vertical;strokeWidth=2;rounded=0;entryX=0.5;entryY=0;entryDx=0;entryDy=0;exitX=0.5;exitY=1;exitDx=0;exitDy=0;strokeColor=#000000;" edge="1" parent="1" source="M5uI9JZ_tP9MdGgEt3Kv-237" target="M5uI9JZ_tP9MdGgEt3Kv-241">
          <mxGeometry x="-23" y="135.5" width="100" height="100" as="geometry">
            <mxPoint x="3946" y="226.5" as="sourcePoint" />
            <mxPoint x="3469" y="296.5" as="targetPoint" />
          </mxGeometry>
        </mxCell>
        <mxCell id="M5uI9JZ_tP9MdGgEt3Kv-241" value="Gestionar &#xa;Citas" style="rounded=1;fillColor=#FF00F7;strokeColor=#000000;fontStyle=1;fontFamily=Tahoma;fontSize=18;fontColor=#000000;strokeWidth=2;" vertex="1" parent="1">
          <mxGeometry x="2967.5" y="454.5" width="130" height="60" as="geometry" />
        </mxCell>
        <mxCell id="M5uI9JZ_tP9MdGgEt3Kv-242" value="" style="edgeStyle=elbowEdgeStyle;elbow=vertical;strokeWidth=2;rounded=0;entryX=0.5;entryY=0;entryDx=0;entryDy=0;exitX=0.5;exitY=1;exitDx=0;exitDy=0;strokeColor=#000000;" edge="1" parent="1" source="M5uI9JZ_tP9MdGgEt3Kv-241" target="M5uI9JZ_tP9MdGgEt3Kv-238">
          <mxGeometry x="-23" y="135.5" width="100" height="100" as="geometry">
            <mxPoint x="3107" y="413.5" as="sourcePoint" />
            <mxPoint x="2917" y="467.5" as="targetPoint" />
          </mxGeometry>
        </mxCell>
        <mxCell id="M5uI9JZ_tP9MdGgEt3Kv-243" value="Asignar citas&#xa; a médicos" style="rounded=1;fillColor=#FF47F9;strokeColor=#000000;fontStyle=1;fontFamily=Tahoma;fontSize=18;fontColor=#000000;strokeWidth=2;" vertex="1" parent="1">
          <mxGeometry x="3057.5" y="588.5" width="190" height="60" as="geometry" />
        </mxCell>
        <mxCell id="M5uI9JZ_tP9MdGgEt3Kv-244" value="" style="edgeStyle=elbowEdgeStyle;elbow=vertical;strokeWidth=2;rounded=0;entryX=0.5;entryY=0;entryDx=0;entryDy=0;exitX=0.5;exitY=1;exitDx=0;exitDy=0;strokeColor=#000000;" edge="1" parent="1" source="M5uI9JZ_tP9MdGgEt3Kv-241" target="M5uI9JZ_tP9MdGgEt3Kv-243">
          <mxGeometry x="-23" y="135.5" width="100" height="100" as="geometry">
            <mxPoint x="3137" y="542.5" as="sourcePoint" />
            <mxPoint x="3147" y="492.5" as="targetPoint" />
            <Array as="points">
              <mxPoint x="3113.5" y="546.5" />
            </Array>
          </mxGeometry>
        </mxCell>
        <mxCell id="M5uI9JZ_tP9MdGgEt3Kv-245" value="" style="edgeStyle=elbowEdgeStyle;elbow=vertical;strokeWidth=2;rounded=0;entryX=0.5;entryY=0;entryDx=0;entryDy=0;exitX=0.5;exitY=1;exitDx=0;exitDy=0;strokeColor=#000000;" edge="1" parent="1" source="M5uI9JZ_tP9MdGgEt3Kv-237" target="M5uI9JZ_tP9MdGgEt3Kv-246">
          <mxGeometry x="-23" y="135.5" width="100" height="100" as="geometry">
            <mxPoint x="3910" y="377.5" as="sourcePoint" />
            <mxPoint x="3920" y="307.5" as="targetPoint" />
            <Array as="points">
              <mxPoint x="3417" y="410.5" />
            </Array>
          </mxGeometry>
        </mxCell>
        <mxCell id="M5uI9JZ_tP9MdGgEt3Kv-246" value="Calendario&#xa;de citas" style="rounded=1;fillColor=#FF00F7;strokeColor=#000000;fontStyle=1;fontFamily=Tahoma;fontSize=18;fontColor=#000000;strokeWidth=2;" vertex="1" parent="1">
          <mxGeometry x="3307.25" y="458.5" width="138.5" height="66" as="geometry" />
        </mxCell>
        <mxCell id="M5uI9JZ_tP9MdGgEt3Kv-247" value="Vista diaria, semanal&#xa; y mensual" style="rounded=1;fillColor=#FF47F9;strokeColor=#000000;fontStyle=1;fontFamily=Tahoma;fontSize=18;fontColor=#000000;strokeWidth=2;" vertex="1" parent="1">
          <mxGeometry x="3268.75" y="586" width="215.5" height="65" as="geometry" />
        </mxCell>
        <mxCell id="M5uI9JZ_tP9MdGgEt3Kv-248" value="" style="edgeStyle=elbowEdgeStyle;elbow=vertical;strokeWidth=2;rounded=0;entryX=0.5;entryY=0;entryDx=0;entryDy=0;exitX=0.5;exitY=1;exitDx=0;exitDy=0;strokeColor=#000000;" edge="1" parent="1" source="M5uI9JZ_tP9MdGgEt3Kv-246" target="M5uI9JZ_tP9MdGgEt3Kv-247">
          <mxGeometry x="-23" y="135.5" width="100" height="100" as="geometry">
            <mxPoint x="3274" y="546.5" as="sourcePoint" />
            <mxPoint x="3284" y="496.5" as="targetPoint" />
          </mxGeometry>
        </mxCell>
        <mxCell id="M5uI9JZ_tP9MdGgEt3Kv-249" value="Metricas y&#xa; Estadísticas" style="rounded=1;fillColor=#FF47F9;strokeColor=#000000;fontStyle=1;fontFamily=Tahoma;fontSize=18;fontColor=#000000;strokeWidth=2;" vertex="1" parent="1">
          <mxGeometry x="3501.5" y="584.5" width="152" height="64" as="geometry" />
        </mxCell>
        <mxCell id="M5uI9JZ_tP9MdGgEt3Kv-250" style="edgeStyle=orthogonalEdgeStyle;rounded=0;orthogonalLoop=1;jettySize=auto;html=1;exitX=0.5;exitY=1;exitDx=0;exitDy=0;entryX=0.5;entryY=0;entryDx=0;entryDy=0;strokeColor=#000000;strokeWidth=2;" edge="1" parent="1" source="M5uI9JZ_tP9MdGgEt3Kv-251" target="M5uI9JZ_tP9MdGgEt3Kv-255">
          <mxGeometry relative="1" as="geometry">
            <Array as="points">
              <mxPoint x="3769.5" y="548.5" />
              <mxPoint x="3982.5" y="548.5" />
            </Array>
          </mxGeometry>
        </mxCell>
        <mxCell id="M5uI9JZ_tP9MdGgEt3Kv-251" value="Generar informes" style="rounded=1;fillColor=#FF00F7;strokeColor=#000000;fontStyle=1;fontFamily=Tahoma;fontSize=18;fontColor=#000000;strokeWidth=2;" vertex="1" parent="1">
          <mxGeometry x="3668.5" y="454.5" width="202" height="60" as="geometry" />
        </mxCell>
        <mxCell id="M5uI9JZ_tP9MdGgEt3Kv-252" value="" style="edgeStyle=elbowEdgeStyle;elbow=vertical;strokeWidth=2;rounded=0;entryX=0.5;entryY=0;entryDx=0;entryDy=0;exitX=0.5;exitY=1;exitDx=0;exitDy=0;strokeColor=#000000;" edge="1" parent="1" source="M5uI9JZ_tP9MdGgEt3Kv-251" target="M5uI9JZ_tP9MdGgEt3Kv-249">
          <mxGeometry x="-23" y="135.5" width="100" height="100" as="geometry">
            <mxPoint x="3424" y="413.5" as="sourcePoint" />
            <mxPoint x="3234" y="467.5" as="targetPoint" />
          </mxGeometry>
        </mxCell>
        <mxCell id="M5uI9JZ_tP9MdGgEt3Kv-253" value="Citas por médico, &#xa;especialidad" style="rounded=1;fillColor=#FF47F9;strokeColor=#000000;fontStyle=1;fontFamily=Tahoma;fontSize=18;fontColor=#000000;strokeWidth=2;" vertex="1" parent="1">
          <mxGeometry x="3675.5" y="586.5" width="190" height="60" as="geometry" />
        </mxCell>
        <mxCell id="M5uI9JZ_tP9MdGgEt3Kv-254" value="" style="edgeStyle=elbowEdgeStyle;elbow=vertical;strokeWidth=2;rounded=0;entryX=0.5;entryY=0;entryDx=0;entryDy=0;exitX=0.5;exitY=1;exitDx=0;exitDy=0;strokeColor=#000000;" edge="1" parent="1" source="M5uI9JZ_tP9MdGgEt3Kv-251" target="M5uI9JZ_tP9MdGgEt3Kv-253">
          <mxGeometry x="-23" y="135.5" width="100" height="100" as="geometry">
            <mxPoint x="3454" y="542.5" as="sourcePoint" />
            <mxPoint x="3464" y="492.5" as="targetPoint" />
          </mxGeometry>
        </mxCell>
        <mxCell id="M5uI9JZ_tP9MdGgEt3Kv-255" value="Estado de citas" style="rounded=1;fillColor=#FF47F9;strokeColor=#000000;fontStyle=1;fontFamily=Tahoma;fontSize=18;fontColor=#000000;strokeWidth=2;" vertex="1" parent="1">
          <mxGeometry x="3887.5" y="586.5" width="190" height="60" as="geometry" />
        </mxCell>
        <mxCell id="M5uI9JZ_tP9MdGgEt3Kv-256" value="" style="edgeStyle=elbowEdgeStyle;elbow=vertical;strokeWidth=2;rounded=0;entryX=0.5;entryY=0;entryDx=0;entryDy=0;exitX=0.5;exitY=1;exitDx=0;exitDy=0;strokeColor=#000000;" edge="1" parent="1" source="M5uI9JZ_tP9MdGgEt3Kv-237" target="M5uI9JZ_tP9MdGgEt3Kv-251">
          <mxGeometry x="-23" y="135.5" width="100" height="100" as="geometry">
            <mxPoint x="3894" y="368.5" as="sourcePoint" />
            <mxPoint x="4004" y="447.5" as="targetPoint" />
          </mxGeometry>
        </mxCell>
      </root>
    </mxGraphModel>
  </diagram>
</mxfile>
